# xmcd CD database file
#
# Track frame offsets:
#	150
#	13386
#	45792
#	84550
#	115405
#	172755
#	196969
#	233025
#	255156
#
# Disc length: 3943 seconds
#
# Revision: 1
# Processed by: cddbd v1.4PL0 Copyright (c) Steve Scherf et al.
# Submitted via: CDex 1.50beta9
#
DISCID=610f6509
DTITLE=Ben Harper - Fox Theater
DYEAR=1996
DGENRE=Blues
TTITLE0=Intro
TTITLE1=The Will to Live
TTITLE2=Don't Take That Attitude to Your Grave
TTITLE3=People Lead
TTITLE4=God Fearing Man
TTITLE5=Gold to Me >
TTITLE6=Fight For Your Mind
TTITLE7=Please Me Like You Want To
TTITLE8=Burn One Down > With My Own Two Hands
EXTD=YEAR: 1996
EXTT0=
EXTT1=
EXTT2=
EXTT3=
EXTT4=
EXTT5=
EXTT6=
EXTT7=
EXTT8=
PLAYORDER=
